<?xml version="1.0" encoding="utf-8"?>
<!-- Generator: Adobe Illustrator 23.0.1, SVG Export Plug-In . SVG Version: 6.00 Build 0)  -->
<svg version="1.1" id="Layer_1" xmlns="http://www.w3.org/2000/svg" xmlns:xlink="http://www.w3.org/1999/xlink" x="0px" y="0px"
	 viewBox="0 0 1052.3 277.4" style="enable-background:new 0 0 1052.3 277.4;" xml:space="preserve">
<style type="text/css">
	.st0 {
		fill: #FC9D29;
		stroke: #FC9D29;
		stroke-width: 0.5578;
		stroke-miterlimit: 10;
	}
	.white {
		fill:#FFFFFF;
	}
	.orange {
		fill: #FC9D29;
	}
</style>
<path class="st0" d="M109.9,83.8c-7.3,3.9-17.4,8.2-25.1,13.3c-16.1,10.6-28.3,21-37.5,30.4c3.7,6.2,7.8,12,12.2,17.4
	c7.4-7.7,20.7-16.8,43.1-17.8l-0.8,5.8c-19.4,1.5-32.4,9.5-38.7,16.3c9.6,10.8,19.6,19,31.4,25.5l-1,5.8c-12.9-7-24.5-16.4-34-26.9
	c-7.6,10.4-9.2,21.8-4.7,34c1.7,4.7,4,8.6,6,11.5c-14.6-4.6-17.8-33.1-5-49.8c-4.5-5.4-8.6-11.2-12.5-17.5
	c-13.3,14.5-19.5,26.4-22,32.4c0.5-14.6,6.7-24.1,19.1-37.4c-3.2-5.8-5.9-11.5-8-17.1c-10.5,4.8-23.2,5.8-28.3-3.9
	c6.8,3.9,16.1,3.5,26.4-1.3c-8.3-25.1-4.1-56.1,4.2-70.7c-3.4,11.5-8.9,37.7,0.8,68.1C47,94.9,59.3,81.9,66.6,44.9
	c0,0,6.8-38.2,45.7-40.9C99.6,7.8,77.5,18.4,72,46c-8,40.1-21.8,53.7-34.8,61c1.9,5.1,4.2,10.3,7.1,15.5c9.4-9.4,21.6-19.6,37.4-30
	c9.4-6.2,20.1-12.1,29.4-16.8L109.9,83.8z"/>
<path class="white" d="M373.2,5.3l21.1,25.6l-9.2,52.2l-18.9,16.2l13.3,15.9L369,173.8l-29.2,24.9h-97.1l7.2-13.1l29.3-165.9
	l-2.3-14.6H373.2z M292.8,164.5h30.1l10.1-8.2l5.1-29.1l-6.8-8.2l-33.3,15.8L292.8,164.5z M304.8,95.8L338.1,80l9.6-8.2l3.9-22
	l-6.9-8.2h-30.2L304.8,95.8z"/>
<path class="white" d="M511.4,5.1L503,20.6l2.9,164.9l5.8,13.2h-55l7.6-13.9l0.4-27.4h-32.1l-9.4,27.8l2.6,13.5h-55.1l10.4-13.1
	L441.9,21l-2.6-15.9H511.4z M444.4,122.4h20.7l1.2-65.8L444.4,122.4z"/>
<path class="white" d="M203.4,95.3c0.1-0.7,0.3-1.4,0.4-2.1c4.2-23.5,8.5-47.1,12.6-70.6c0.3-1.8,0.2-3.6-0.1-5.3
	c-0.7-3.9-1.7-7.7-2.7-11.8c15.7,0,31.2,0,47,0c-1.7,3.2-3.3,6.4-5.2,9.5c-1.8,3-2.7,6-3.3,9.2C242.9,77,233.5,130,224.3,182.9
	c-0.3,1.9-0.1,3.9,0.3,5.6c0.8,3.4,1.9,6.6,2.9,10.1c-0.9,0.1-1.6,0.1-2.2,0.1c-11,0-22.1,0-33.1,0.1c-1.9,0-2.7-0.7-3.2-2.3
	c-9.5-31.5-19.1-63-28.6-94.5c-0.2-0.8-0.5-1.5-1.2-2.3c-0.2,0.6-0.4,1.2-0.5,1.7c-4.8,27.1-9.6,54.1-14.3,81.2
	c-0.2,1.1,0,2.3,0.2,3.3c1.2,4.2,2.5,8.3,3.8,12.7c-16.2,0-32,0-48.2,0c1.9-3.6,4-7.1,5.7-10.7c1-2.1,2-4.4,2.3-6.6
	c9.4-52.9,18.7-105.7,28-158.6c0.4-2.3,0.3-4.4-0.4-6.5c-1.2-3.5-2.2-7.1-3.3-10.8c0.9,0,1.5-0.1,2-0.1c12,0,24,0,36,0
	c0.8,0,1.9,0.4,2.1,1c5.4,16.3,10.6,32.7,16.1,48.9c4.3,12.9,8.9,25.7,13.3,38.5c0.2,0.6,0.4,1.1,0.7,1.7
	C203.1,95.4,203.2,95.3,203.4,95.3z"/>
<g>
	<path class="orange" d="M580,153.5l1.2-0.1l10-2.8l-3.6,20.6l-63.1,0l3.2-17.7L580,153.5z"/>
</g>
<g>
	<path class="orange" d="M597.9,32.8l11.7,14.3l-6.1,34.5L558,103.8l-2.9,16.8H575l3.1-17.7l20.4,7.6l-5.2,29.7h-63.2l8.5-47.9
		l45.5-22.1l2.4-13.7l-3.4-4.1h-13.6l-4.4,3.8l-2.2,12.3L542.6,59l2.1-11.8l16.8-14.4H597.9z"/>
</g>
<g>
	<path class="white" d="M735.3,198.7l-133.9,0l7.8-14.3l28.9-163.6l-2.5-15.8h50.1l-8.2,16l-25.3,142.5l68,0.1l2.3-0.1l19.8-5.6
		L735.3,198.7z"/>
	<path class="white" d="M877.5,5.3l21.4,25.6L873.8,173l-30.5,25.8h-65.5L756.6,173l25.1-142L812,5.3H877.5z M829.2,163.4l8.5-7.6
		l19.2-108.5l-5.5-7h-24.6l-8.9,7.6l-19.2,108.6l5.6,7H829.2z"/>
	<path class="white" d="M1044.6,5l-7.9,15.5l-27.4,153.7l-28.8,24.5h-65.8l-21-25.5l26.9-152.5L918.2,5h49.3l-8.1,15.8l-24,136.2
		l5.5,6.9l24.4,0.1l8.4-7.3l24-136.2L995.3,5H1044.6z"/>
</g>
<g>
	<path class="white" d="M779.7,237l-1.3,2.5l-3.9,22.1l10.1,0l0,0l2.6-0.9l-0.3,0.9l-2,5.4h-18.2l1.2-2.2l4.5-25.4l-0.4-2.5H779.7z"/>
	<path class="white" d="M811.5,237.1l0.2,6.3l-2.4-0.9h-8.4l-1.1,6.5h6l2.6-0.8l-1.2,6.9l-2.2-0.8l-6.1,0l-1.3,7.4l10.1,0l0,0l2.6-0.9
		l-2.4,6.3h-18.2l1.2-2.2l4.5-25.4l-0.4-2.5H811.5z"/>
	<path class="white" d="M835.7,237l0.2,6.3l-2.3-0.9H829l-4,22.4l0.7,2.2h-8l1.2-2.2l4-22.4h-4.4l-2.6,0.9l2.4-6.3H835.7z"/>
	<path class="white" d="M847.2,234.9l-1.1,6c0,0.1-1.1,1.3-3.1,3.9h-2.8l2.8-3.9h-3.1l1.1-6H847.2z"/>
	<path class="white" d="M865.4,237.1l3.3,4l-0.7,4.2l-6.5,2.6l0.8-4.4l-0.8-1l-3.8,0l-1.4,1.2l-0.7,3.7l10.5,6.2l-1.7,9.5l-4.8,4.1
		h-10.2l-3.3-4l0.8-4.3l6.5-2.1l-0.7,3.9l0.9,1.1h3.8l1.4-1.2l0.6-3.6l-10.5-6.2l1.7-9.7l4.7-4H865.4z"/>
	<path class="white" d="M898.3,237.1l3.3,4l-0.4,2.7l-7.2,3l1-2.4l0.1-0.8l-0.8-1.1l-3.8,0l-1.4,1.1l-3,16.9l0.9,1.1l3.8,0l1.3-1.1
		l1-5.6l-1.5-1.6l8.5-3.4l-2.4,13.2l-4.7,4h-10.2l-3.3-4l3.9-22.1l4.7-4H898.3z"/>
	<path class="white" d="M920.8,237.1l3.3,4l-3.9,22.1l-4.7,4h-10.2l-3.3-4l3.9-22.1l4.7-4H920.8z M913.3,261.6l1.3-1.2l3-16.9
		l-0.9-1.1H913l-1.4,1.2l-3,16.9l0.9,1.1H913.3z"/>
	<path class="white" d="M954.6,237.1l3.3,4l-2.1,11.5l-4.5,3.9h-8.2l-1.5,8.4l0.7,2.2h-8l1.2-2.2l4.5-25.6l-0.4-2.2H954.6z M944,251
		h4.7l1.5-1.3l1-5.9l-1-1.3h-4.8L944,251z"/>
	<path class="white" d="M977.3,237.1l3.3,4l-2.1,11.5l-4.2,3.6l2.5,8.4l1.8,2.5h-9.2l1-1.9l-2.3-8.8h-2.4l-1.5,8.4l0.7,2.3h-8l1.2-2.2
		l4.5-25.6l-0.4-2.2H977.3z M966.8,251h4.7l1.6-1.3l1-5.9l-1.1-1.3h-4.7L966.8,251z"/>
	<path class="white" d="M1000.6,237.1l3.3,4l-3.9,22.1l-4.7,4h-10.2l-3.3-4l3.9-22.1l4.7-4H1000.6z M993.1,261.6l1.3-1.2l3-16.9
		l-0.9-1.1h-3.8l-1.4,1.2l-3,16.9l0.9,1.1H993.1z"/>
	<path class="white" d="M1004.6,261.1h6.3l-1.1,6.1h-6.3L1004.6,261.1z"/>
</g>
</svg>
